<svg width="295" height="246" viewBox="0 0 295 246" fill="none" xmlns="http://www.w3.org/2000/svg">
<g filter="url(#filter0_d_1_14)">
<rect y="21" width="270" height="179" fill="#215968"/>
<path d="M151.584 127.599V131.276C151.584 132.458 151.152 133.601 150.37 134.488L149.318 135.618C148.581 136.409 147.609 136.94 146.546 137.131L146.082 137.215C144.357 137.526 142.976 138.825 142.561 140.529C142.477 140.873 142.434 141.226 142.434 141.58V146.203C142.434 147.069 142.659 147.92 143.087 148.673L144.459 151.087L146.05 154.524C146.336 155.142 146.744 155.694 147.251 156.148L149.414 158.086C150.041 158.647 150.8 159.042 151.62 159.232L154.346 159.865C154.717 159.951 155.096 159.994 155.477 159.994H156.868C159.629 159.994 161.868 162.233 161.868 164.994V166.566C161.868 167.147 161.767 167.723 161.569 168.269L160 172.6C159.896 172.887 159.766 173.163 159.612 173.427L155.295 180.786C155.036 181.228 154.846 181.706 154.733 182.205L152.787 190.743C152.533 191.857 151.905 192.851 151.007 193.558L148.183 195.785L145.007 198.133C144.643 198.401 144.245 198.62 143.822 198.781L138.518 200.811C138.108 200.968 137.72 201.179 137.364 201.437L134.348 203.631C133.754 204.063 133.073 204.359 132.351 204.497L125.701 205.776C125.253 205.863 124.818 206.01 124.409 206.214L117.899 209.469L110.531 211.979L107.411 213.29C106.798 213.547 106.14 213.68 105.475 213.68H104.019C102.838 213.68 101.696 214.098 100.793 214.86L100.455 215.145C99.2537 216.16 97.6451 216.55 96.1123 216.199L95.2114 215.992C94.8451 215.908 94.4704 215.866 94.0946 215.866H92.6345C91.9412 215.866 91.2555 216.01 90.6208 216.289L89.9384 216.59C89.6858 216.701 89.4428 216.833 89.212 216.984L87.2106 218.295L84.6087 220.046C83.6031 220.723 83 221.856 83 223.068C83 224.007 83.3619 224.908 84.0104 225.586L85.8678 227.528C86.3266 228.008 86.8762 228.391 87.4847 228.656L91.1416 230.249C91.4353 230.377 91.7406 230.476 92.0533 230.546L95.034 231.208C95.6431 231.343 96.2721 231.364 96.8886 231.267L100.807 230.657C101.712 230.516 102.561 230.129 103.261 229.538L104.782 228.255L106.656 226.958C107.492 226.379 108.485 226.069 109.502 226.069H113.156C114.482 226.069 115.754 225.542 116.692 224.604L118.498 222.798C119.01 222.286 119.629 221.89 120.309 221.64L127.211 219.105L133.446 217.728L142.044 215.947C142.304 215.893 142.559 215.819 142.807 215.724L148.183 213.68L152.878 212.208C153.362 212.056 153.867 211.979 154.374 211.979H155.148C156.3 211.979 157.416 211.582 158.308 210.854L162.665 207.299C162.943 207.073 163.195 206.818 163.418 206.538L165.578 203.821C165.803 203.539 166.058 203.281 166.338 203.053L169.297 200.65C169.633 200.377 169.932 200.061 170.187 199.71L171.63 197.727C172.517 196.507 173.935 195.785 175.444 195.785C176.05 195.785 176.651 195.902 177.213 196.129L179.763 197.161L181.769 197.902C182.861 198.306 184.074 198.216 185.095 197.656C185.687 197.331 186.352 197.161 187.028 197.161H188.508H191.099C193.017 197.161 194.752 198.298 195.518 200.056L196.444 202.182L197.673 205.637C197.981 206.501 198.045 207.434 197.858 208.333L197.769 208.758C197.494 210.079 196.639 211.206 195.441 211.827C195.246 211.928 195.044 212.015 194.836 212.087L190.558 213.56C190.325 213.64 190.099 213.737 189.881 213.85L186.853 215.422C186.288 215.715 185.785 216.114 185.369 216.596L181.882 220.643C181.604 220.966 181.286 221.252 180.935 221.494L178.385 223.255C178.17 223.403 177.968 223.568 177.779 223.747L173.779 227.554C173.293 228.016 172.905 228.572 172.638 229.188L171.802 231.116C171.272 232.34 171.478 233.759 172.335 234.781C172.796 235.329 173.412 235.725 174.103 235.914L177.414 236.822C177.844 236.94 178.289 237 178.736 237H181.649C182.063 237 182.477 236.948 182.878 236.846L187.176 235.756C187.523 235.668 187.88 235.623 188.238 235.623H190.51C191.64 235.623 192.557 234.707 192.557 233.577C192.557 233.272 192.625 232.97 192.756 232.695L193.955 230.183C194.156 229.763 194.413 229.374 194.721 229.025L197.334 226.069L198.823 224.426C199.387 223.804 200.099 223.333 200.892 223.059L203.501 222.156C203.762 222.065 204.03 221.997 204.302 221.951L209.156 221.129L212.134 220.385C213.146 220.132 214.054 219.568 214.731 218.772L215.404 217.98C216.08 217.184 216.491 216.197 216.577 215.157L217.416 205.097V202.309C217.416 200.983 217.942 199.711 218.88 198.774L219.482 198.171C220.143 197.511 220.975 197.049 221.884 196.837L225.422 196.013C226.07 195.862 226.681 195.584 227.22 195.193L230.136 193.082C230.77 192.623 231.287 192.021 231.646 191.326L234.468 185.859C234.809 185.197 235.295 184.619 235.889 184.169L238.291 182.346C239.115 181.721 239.426 180.626 239.053 179.661C238.834 179.096 238.403 178.639 237.853 178.388L237.048 178.021C235.861 177.479 235.244 176.154 235.593 174.897C235.726 174.418 235.991 173.987 236.357 173.651L239.11 171.127C239.49 170.779 239.814 170.374 240.07 169.927L243.826 163.371C244.032 163.011 244.193 162.626 244.304 162.227L247.7 150.035L248.587 146.74C248.732 146.2 249.222 145.824 249.782 145.824C250.465 145.824 251.02 146.378 251.02 147.062V149.252C251.02 149.767 251.136 150.276 251.36 150.74L253.206 154.569L255.392 159.832L257.497 165.744L260.979 175.703L262.819 180.781C262.942 181.12 263.027 181.47 263.075 181.827L264.056 189.226L264.799 197.771C264.843 198.279 264.81 198.791 264.699 199.289L264.388 200.688C264.172 201.662 263.67 202.548 262.946 203.233L262.038 204.094C261.346 204.749 260.857 205.587 260.626 206.511L260.6 206.615C260.321 207.728 260.434 208.903 260.919 209.942L261.195 210.533C261.634 211.474 262.355 212.255 263.258 212.767L263.718 213.028C264.47 213.455 265.321 213.68 266.186 213.68H270.291H274.557C275.103 213.68 275.637 213.524 276.097 213.231C277.243 212.502 277.721 211.069 277.24 209.798L276.688 208.335L275.717 205.908C275.502 205.371 275.196 204.875 274.812 204.443L274.064 203.602C273.251 202.687 272.801 201.505 272.801 200.281V198.538V195.023C272.801 194.561 272.737 194.102 272.611 193.658L271.291 189.004C271.165 188.56 271.101 188.101 271.101 187.639V186.034C271.101 185.257 270.92 184.492 270.573 183.797L269.847 182.346C269.5 181.652 269.32 180.886 269.32 180.11V175.703V171.807C269.32 171.015 269.508 170.234 269.868 169.529L270.552 168.193C270.913 167.488 271.101 166.707 271.101 165.915V161.827C271.101 161.257 271.004 160.692 270.813 160.155L269.607 156.757C269.417 156.22 269.32 155.655 269.32 155.085V149.157C269.32 148.612 269.409 148.071 269.583 147.555L271.101 143.071L272.537 139.514C272.712 139.08 272.826 138.624 272.874 138.159L273.797 129.286C273.835 128.922 273.833 128.555 273.791 128.192L272.801 119.67L271.309 112.492C271.172 111.832 270.902 111.206 270.517 110.653L268.15 107.254C268.012 107.056 267.889 106.849 267.781 106.633L266.942 104.955C266.292 103.655 266.24 102.137 266.799 100.796L267.943 98.0499L270.892 92.984C271.031 92.7448 271.19 92.5177 271.367 92.3048L274.816 88.1508C274.984 87.9487 275.136 87.7338 275.27 87.5079L279.441 80.4787L282.966 75.2645C283.206 74.9093 283.4 74.5248 283.542 74.1203L285.718 67.9221C285.905 67.3899 286 66.83 286 66.2659V59.8064C286 59.4992 285.972 59.1927 285.915 58.8907L284.623 51.9498C284.516 51.3779 284.31 50.829 284.015 50.3277L280.98 45.1743L278.079 40.4096C277.755 39.8761 277.264 39.4643 276.682 39.2375L276.315 39.0947C274.625 38.4358 272.801 39.6824 272.801 41.4964C272.801 42.0943 273.009 42.6736 273.389 43.1351L274.801 44.8498C274.979 45.0658 275.139 45.2963 275.278 45.539L277.359 49.164C277.505 49.4188 277.629 49.6859 277.728 49.9623L279.147 53.9093C279.341 54.4518 279.441 55.0239 279.441 55.6003V59.0989C279.441 59.7949 279.296 60.4832 279.015 61.1198L276.556 66.6848C276.428 66.973 276.274 67.2485 276.095 67.5077L271.101 74.7296L266.89 81.6123L260.817 89.7096L257.935 93.0397C256.82 94.3272 255.082 94.8874 253.425 94.493C252.958 94.3818 252.476 94.3449 251.998 94.3838L242.76 95.1348L234.557 96.9147C234.304 96.9696 234.056 97.0441 233.814 97.1375L228.104 99.3454L221.257 102.484C220.646 102.764 220.097 103.164 219.644 103.662L213.691 110.196L208.861 115.458C208.467 115.887 208.151 116.382 207.928 116.92L205.27 123.314L203.577 126.635C203.274 127.23 202.663 127.605 201.995 127.605C201.322 127.605 200.707 127.225 200.406 126.623L199.822 125.455C199.624 125.059 199.521 124.621 199.521 124.178C199.521 123.059 198.868 122.044 197.85 121.579L196.373 120.905C195.99 120.73 195.63 120.507 195.303 120.242L194.095 119.265L191.503 117.373C191.235 117.177 190.947 117.009 190.645 116.87L187.051 115.216L185.124 114.012C184.269 113.478 183.273 113.214 182.266 113.256L164.354 114C163.07 114.053 161.856 114.599 160.964 115.523L153.747 123.002C153.547 123.209 153.366 123.434 153.204 123.672L152.443 124.797C151.883 125.625 151.584 126.6 151.584 127.599Z" fill="black" stroke="black" stroke-width="1.78141" stroke-linecap="round"/>
<g filter="url(#filter1_d_1_14)">
<path d="M8.31348 102V27.2344H28.0669C32.2017 27.2344 35.4727 28.1548 37.8799 29.9956C40.3154 31.8364 42.0571 34.4561 43.105 37.8545C44.1528 41.2529 44.6768 45.3027 44.6768 50.0039C44.6768 54.5352 44.2378 58.4858 43.3599 61.856C42.4819 65.1978 40.9102 67.7891 38.6445 69.6299C36.4072 71.4707 33.2212 72.3911 29.0864 72.3911H23.0117V102H8.31348ZM23.0117 58.9673H23.8613C26.6367 58.9673 28.3359 58.1885 28.959 56.6309C29.582 55.0732 29.8936 52.7793 29.8936 49.749C29.8936 46.917 29.582 44.7363 28.959 43.207C28.3643 41.6494 26.9341 40.8706 24.6685 40.8706H23.0117V58.9673ZM46.1211 102L53.3428 27.2344H78.7036L85.7979 102H71.6519L70.5898 89.9355H61.584L60.6494 102H46.1211ZM62.646 77.9985H69.4429L66.1719 39.9785H65.4922L62.646 77.9985ZM90.3857 102V27.2344H105.339V89.2559H120.717V102H90.3857ZM124.965 102V27.2344H147.734L154.021 72.8159L160.266 27.2344H183.248V102H169.569V48.1348L160.988 102H147.564L138.474 48.1348V102H124.965ZM189.875 102V27.2344H219.781V41.6777H205.083V56.2485H219.187V70.3096H205.083V87.4292H220.758V102H189.875ZM225.729 102V27.2344H248.668C252.491 27.2344 255.38 28.1123 257.334 29.8682C259.288 31.5957 260.591 34.0312 261.242 37.1748C261.922 40.29 262.262 43.9575 262.262 48.1772C262.262 52.2554 261.738 55.5122 260.69 57.9478C259.67 60.3833 257.73 62.0684 254.87 63.0029C257.221 63.4844 258.863 64.6597 259.798 66.5288C260.761 68.3696 261.242 70.7627 261.242 73.708V102H246.501V72.731C246.501 70.5503 246.048 69.2051 245.142 68.6953C244.264 68.1572 242.834 67.8882 240.852 67.8882V102H225.729ZM240.937 54.9316H244.547C246.615 54.9316 247.648 52.6802 247.648 48.1772C247.648 45.2603 247.422 43.3486 246.969 42.4424C246.516 41.5361 245.666 41.083 244.42 41.083H240.937V54.9316Z" fill="#90C8D8"/>
</g>
<g filter="url(#filter2_i_1_14)">
<path d="M8.59961 146V109.906H18.5254C21.123 109.906 23.0781 110.631 24.3906 112.08C25.7031 113.516 26.3594 115.621 26.3594 118.396V135.295C26.3594 138.713 25.7578 141.352 24.5547 143.211C23.3652 145.07 21.2734 146 18.2793 146H8.59961ZM15.8594 139.622H17.1104C18.4365 139.622 19.0996 138.979 19.0996 137.694V119.073C19.0996 117.87 18.9355 117.098 18.6074 116.756C18.293 116.4 17.6436 116.223 16.6592 116.223H15.8594V139.622ZM37.9258 146.328C35.041 146.328 32.833 145.46 31.3018 143.724C29.7842 141.974 29.0254 139.451 29.0254 136.156V119.012C29.0254 115.922 29.7773 113.577 31.2812 111.978C32.7988 110.378 35.0137 109.578 37.9258 109.578C40.8379 109.578 43.0459 110.378 44.5498 111.978C46.0674 113.577 46.8262 115.922 46.8262 119.012V136.156C46.8262 139.451 46.0605 141.974 44.5293 143.724C43.0117 145.46 40.8105 146.328 37.9258 146.328ZM37.9873 139.684C39.0811 139.684 39.6279 138.624 39.6279 136.505V118.889C39.6279 117.111 39.0947 116.223 38.0283 116.223C36.8252 116.223 36.2236 117.132 36.2236 118.95V136.546C36.2236 137.667 36.3604 138.474 36.6338 138.966C36.9072 139.444 37.3584 139.684 37.9873 139.684ZM57.1826 146.328C52.0283 146.328 49.4512 142.637 49.4512 135.254V119.688C49.4512 112.948 52.4043 109.578 58.3105 109.578C60.7441 109.578 62.6104 110.07 63.9092 111.055C65.208 112.025 66.1035 113.447 66.5957 115.32C67.0879 117.193 67.334 119.477 67.334 122.17H60.2793V118.971C60.2793 118.191 60.1699 117.542 59.9512 117.022C59.7461 116.489 59.3086 116.223 58.6387 116.223C57.8047 116.223 57.251 116.503 56.9775 117.063C56.7178 117.624 56.5879 118.239 56.5879 118.909V136.402C56.5879 137.373 56.7109 138.166 56.957 138.781C57.2168 139.383 57.7158 139.684 58.4541 139.684C59.2197 139.684 59.7256 139.383 59.9717 138.781C60.2314 138.166 60.3613 137.359 60.3613 136.361V131.214H58.4336V124.979H67.252V146H64.3604L63.1299 142.965C61.8721 145.207 59.8896 146.328 57.1826 146.328ZM77.5674 146.328C72.4131 146.328 69.8359 142.637 69.8359 135.254V119.688C69.8359 112.948 72.7891 109.578 78.6953 109.578C81.1289 109.578 82.9951 110.07 84.2939 111.055C85.5928 112.025 86.4883 113.447 86.9805 115.32C87.4727 117.193 87.7188 119.477 87.7188 122.17H80.6641V118.971C80.6641 118.191 80.5547 117.542 80.3359 117.022C80.1309 116.489 79.6934 116.223 79.0234 116.223C78.1895 116.223 77.6357 116.503 77.3623 117.063C77.1025 117.624 76.9727 118.239 76.9727 118.909V136.402C76.9727 137.373 77.0957 138.166 77.3418 138.781C77.6016 139.383 78.1006 139.684 78.8389 139.684C79.6045 139.684 80.1104 139.383 80.3564 138.781C80.6162 138.166 80.7461 137.359 80.7461 136.361V131.214H78.8184V124.979H87.6367V146H84.7451L83.5146 142.965C82.2568 145.207 80.2744 146.328 77.5674 146.328ZM90.1797 146V109.906H97.1523V146H90.1797ZM100.023 146V109.906H114.461V116.879H107.365V123.913H114.174V130.701H107.365V138.966H114.933V146H100.023Z" fill="white"/>
</g>
<g filter="url(#filter3_i_1_14)">
<path d="M8.59961 191V154.906H18.5254C21.123 154.906 23.0781 155.631 24.3906 157.08C25.7031 158.516 26.3594 160.621 26.3594 163.396V180.295C26.3594 183.713 25.7578 186.352 24.5547 188.211C23.3652 190.07 21.2734 191 18.2793 191H8.59961ZM15.8594 184.622H17.1104C18.4365 184.622 19.0996 183.979 19.0996 182.694V164.073C19.0996 162.87 18.9355 162.098 18.6074 161.756C18.293 161.4 17.6436 161.223 16.6592 161.223H15.8594V184.622ZM29.3125 191V154.906H43.75V161.879H36.6543V168.913H43.4629V175.701H36.6543V183.966H44.2217V191H29.3125ZM46.6211 191V154.906H56.1572C58.1533 154.906 59.7324 155.351 60.8945 156.239C62.0703 157.128 62.9111 158.393 63.417 160.033C63.9229 161.674 64.1758 163.629 64.1758 165.898C64.1758 168.086 63.9639 169.993 63.54 171.62C63.1162 173.233 62.3574 174.484 61.2637 175.373C60.1836 176.262 58.6455 176.706 56.6494 176.706H53.7168V191H46.6211ZM53.7168 170.226H54.127C55.4668 170.226 56.2871 169.85 56.5879 169.098C56.8887 168.346 57.0391 167.238 57.0391 165.775C57.0391 164.408 56.8887 163.355 56.5879 162.617C56.3008 161.865 55.6104 161.489 54.5166 161.489H53.7168V170.226ZM75.0859 191.328C72.2012 191.328 69.9932 190.46 68.4619 188.724C66.9443 186.974 66.1855 184.451 66.1855 181.156V164.012C66.1855 160.922 66.9375 158.577 68.4414 156.978C69.959 155.378 72.1738 154.578 75.0859 154.578C77.998 154.578 80.2061 155.378 81.71 156.978C83.2275 158.577 83.9863 160.922 83.9863 164.012V181.156C83.9863 184.451 83.2207 186.974 81.6895 188.724C80.1719 190.46 77.9707 191.328 75.0859 191.328ZM75.1475 184.684C76.2412 184.684 76.7881 183.624 76.7881 181.505V163.889C76.7881 162.111 76.2549 161.223 75.1885 161.223C73.9854 161.223 73.3838 162.132 73.3838 163.95V181.546C73.3838 182.667 73.5205 183.474 73.7939 183.966C74.0674 184.444 74.5186 184.684 75.1475 184.684ZM89.9951 191V161.838H85.709V154.906H101.5V161.838H97.2139V191H89.9951Z" fill="white"/>
</g>
</g>
<defs>
<filter id="filter0_d_1_14" x="0" y="21" width="294.891" height="224.891" filterUnits="userSpaceOnUse" color-interpolation-filters="sRGB">
<feFlood flood-opacity="0" result="BackgroundImageFix"/>
<feColorMatrix in="SourceAlpha" type="matrix" values="0 0 0 0 0 0 0 0 0 0 0 0 0 0 0 0 0 0 127 0" result="hardAlpha"/>
<feOffset dx="4" dy="4"/>
<feGaussianBlur stdDeviation="2"/>
<feComposite in2="hardAlpha" operator="out"/>
<feColorMatrix type="matrix" values="0 0 0 0 0 0 0 0 0 0 0 0 0 0 0 0 0 0 0.25 0"/>
<feBlend mode="normal" in2="BackgroundImageFix" result="effect1_dropShadow_1_14"/>
<feBlend mode="normal" in="SourceGraphic" in2="effect1_dropShadow_1_14" result="shape"/>
</filter>
<filter id="filter1_d_1_14" x="8.31348" y="27.2344" width="261.948" height="82.7656" filterUnits="userSpaceOnUse" color-interpolation-filters="sRGB">
<feFlood flood-opacity="0" result="BackgroundImageFix"/>
<feColorMatrix in="SourceAlpha" type="matrix" values="0 0 0 0 0 0 0 0 0 0 0 0 0 0 0 0 0 0 127 0" result="hardAlpha"/>
<feOffset dx="4" dy="4"/>
<feGaussianBlur stdDeviation="2"/>
<feComposite in2="hardAlpha" operator="out"/>
<feColorMatrix type="matrix" values="0 0 0 0 0 0 0 0 0 0 0 0 0 0 0 0 0 0 0.25 0"/>
<feBlend mode="normal" in2="BackgroundImageFix" result="effect1_dropShadow_1_14"/>
<feBlend mode="normal" in="SourceGraphic" in2="effect1_dropShadow_1_14" result="shape"/>
</filter>
<filter id="filter2_i_1_14" x="8.59961" y="109.578" width="110.333" height="40.75" filterUnits="userSpaceOnUse" color-interpolation-filters="sRGB">
<feFlood flood-opacity="0" result="BackgroundImageFix"/>
<feBlend mode="normal" in="SourceGraphic" in2="BackgroundImageFix" result="shape"/>
<feColorMatrix in="SourceAlpha" type="matrix" values="0 0 0 0 0 0 0 0 0 0 0 0 0 0 0 0 0 0 127 0" result="hardAlpha"/>
<feOffset dx="4" dy="4"/>
<feGaussianBlur stdDeviation="6"/>
<feComposite in2="hardAlpha" operator="arithmetic" k2="-1" k3="1"/>
<feColorMatrix type="matrix" values="0 0 0 0 0 0 0 0 0 0 0 0 0 0 0 0 0 0 0.25 0"/>
<feBlend mode="normal" in2="shape" result="effect1_innerShadow_1_14"/>
</filter>
<filter id="filter3_i_1_14" x="8.59961" y="154.578" width="96.9004" height="40.75" filterUnits="userSpaceOnUse" color-interpolation-filters="sRGB">
<feFlood flood-opacity="0" result="BackgroundImageFix"/>
<feBlend mode="normal" in="SourceGraphic" in2="BackgroundImageFix" result="shape"/>
<feColorMatrix in="SourceAlpha" type="matrix" values="0 0 0 0 0 0 0 0 0 0 0 0 0 0 0 0 0 0 127 0" result="hardAlpha"/>
<feOffset dx="4" dy="4"/>
<feGaussianBlur stdDeviation="6"/>
<feComposite in2="hardAlpha" operator="arithmetic" k2="-1" k3="1"/>
<feColorMatrix type="matrix" values="0 0 0 0 0 0 0 0 0 0 0 0 0 0 0 0 0 0 0.25 0"/>
<feBlend mode="normal" in2="shape" result="effect1_innerShadow_1_14"/>
</filter>
</defs>
</svg>
